# File created by Blade
# Date/Time:  Tue Sep 30 19:29:27 2014
#---------------------------------------------------------
:version 1.10
:name HOM
:units
  mass 1.0
  length 1.000000
  angle deg
:documentation
     Acclaim Skeleton File
:root
   axis xyz
   order TX TY TZ RX RY RZ
   position 0.000000 0.000000 0.000000
   orientation 0 0 0
:bonedata
   begin
      id 1
      name RightUpLeg_dum
      direction -1.000000 0.000000 0.000000
      length 3.766986
      axis 0.0 0.0 0.0 xyz
   end
   begin
      id 2
      name LeftUpLeg_dum
      direction 1.000000 0.000000 0.000000
      length 3.766986
      axis 0.0 0.0 0.0 xyz
   end
   begin
      id 3
      name Spine_dum
      direction 0.000000 1.000000 0.000000
      length 7.779697
      axis 0.0 0.0 0.0 xyz
   end
   begin
      id 4
      name RightUpLeg
      direction 0.000000 -1.000000 0.000000
      length 18.017682
      axis 0.0 0.0 0.0 xyz
      dof rx ry rz
   end
   begin
      id 5
      name RightLeg
      direction 0.000000 -1.000000 0.000000
      length 16.881075
      axis 0.0 0.0 0.0 xyz
      dof rx ry rz
   end
   begin
      id 6
      name RightFoot
      direction 0.000000 -0.258819 0.965926
      length 5.770812
      axis 15.0 0.0 0.0 xyz
      dof rx ry rz
   end
   begin
      id 7
      name RightToeBase
      direction 0.000000 0.000000 1.000000
      length 2.952750
      axis 0.0 0.0 0.0 xyz
      dof rx ry rz
   end
   begin
      id 8
      name LeftUpLeg
      direction 0.000000 -1.000000 0.000000
      length 18.017682
      axis 0.0 0.0 0.0 xyz
      dof rx ry rz
   end
   begin
      id 9
      name LeftLeg
      direction 0.000000 -1.000000 0.000000
      length 16.881075
      axis 0.0 0.0 0.0 xyz
      dof rx ry rz
   end
   begin
      id 10
      name LeftFoot
      direction 0.000000 -0.258819 0.965926
      length 5.770812
      axis 15.0 0.0 0.0 xyz
      dof rx ry rz
   end
   begin
      id 11
      name LeftToeBase
      direction 0.000000 0.000000 1.000000
      length 2.952750
      axis 0.0 0.0 0.0 xyz
      dof rx ry rz
   end
   begin
      id 12
      name Spine
      direction 0.000000 1.000000 0.000000
      length 0.000000
      axis 0.0 0.0 0.0 xyz
      dof rx ry rz
   end
   begin
      id 13
      name Spine_dum1
      direction 0.000000 1.000000 0.000000
      length 10.941760
      axis 0.0 0.0 0.0 xyz
   end
   begin
      id 14
      name Spine_dum2
      direction 0.000000 1.000000 0.000000
      length 10.941760
      axis 0.0 0.0 0.0 xyz
   end
   begin
      id 15
      name Spine_dum3
      direction 0.000000 1.000000 0.000000
      length 16.646042
      axis 0.0 0.0 0.0 xyz
   end
   begin
      id 16
      name RightShoulder
      direction -1.000000 0.000000 0.000000
      length 7.708937
      axis 0.0 0.0 90.0 xyz
      dof rx ry rz
   end
   begin
      id 17
      name RightArm
      direction -1.000000 0.000000 0.000000
      length 11.521345
      axis 0.0 0.0 90.0 xyz
      dof rx ry rz
   end
   begin
      id 18
      name RightForeArm
      direction -1.000000 0.000000 0.000000
      length 10.175898
      axis 0.0 0.0 90.0 xyz
      dof ry rz rx
   end
   begin
      id 19
      name RightHand
      direction -1.000000 0.000000 0.000000
      length 0.000000
      axis 0.0 0.0 90.0 xyz
      dof rx ry rz
   end
   begin
      id 20
      name RightHand_dum1
      direction -1.000000 0.000000 0.000000
      length 3.937000
      axis 0.0 0.0 90.0 xyz
   end
   begin
      id 21
      name RightHand_dum2
      direction 0.000000 0.000000 0.000000
      length 0.000000
      axis 0.0 0.0 90.0 xyz
   end
   begin
      id 22
      name RightHandThumb1
      direction 0.000000 0.000000 1.000000
      length 3.937000
      axis 0.0 0.0 90.0 xyz
      dof rx rz ry
   end
   begin
      id 23
      name LeftShoulder
      direction 1.000000 0.000000 0.000000
      length 7.708937
      axis 0.0 0.0 -90.0 xyz
      dof rx ry rz
   end
   begin
      id 24
      name LeftArm
      direction 1.000000 0.000000 0.000000
      length 11.521345
      axis 0.0 0.0 -90.0 xyz
      dof rx ry rz
   end
   begin
      id 25
      name LeftForeArm
      direction 1.000000 0.000000 0.000000
      length 10.175898
      axis 0.0 0.0 -90.0 xyz
      dof ry rz rx
   end
   begin
      id 26
      name LeftHand
      direction 1.000000 0.000000 0.000000
      length 0.000000
      axis 0.0 0.0 -90.0 xyz
      dof rx ry rz
   end
   begin
      id 27
      name LeftHand_dum1
      direction 1.000000 0.000000 0.000000
      length 3.937000
      axis 0.0 0.0 -90.0 xyz
   end
   begin
      id 28
      name LeftHand_dum2
      direction 0.000000 0.000000 0.000000
      length 0.000000
      axis 0.0 0.0 -90.0 xyz
   end
   begin
      id 29
      name LeftHandThumb1
      direction 0.000000 0.000000 1.000000
      length 3.937000
      axis 0.0 0.0 -90.0 xyz
      dof rx rz ry
   end
   begin
      id 30
      name Head
      direction 0.000000 1.000000 0.000000
      length 4.527550
      axis 0.0 0.0 0.0 xyz
      dof rx ry rz
   end
:hierarchy
   begin
      root RightUpLeg_dum LeftUpLeg_dum Spine_dum
      RightUpLeg_dum RightUpLeg
      LeftUpLeg_dum LeftUpLeg
      Spine_dum Spine
      RightUpLeg RightLeg
      RightLeg RightFoot
      RightFoot RightToeBase
      LeftUpLeg LeftLeg
      LeftLeg LeftFoot
      LeftFoot LeftToeBase
      Spine Spine_dum1 Spine_dum2 Spine_dum3
      Spine_dum1 RightShoulder
      Spine_dum2 LeftShoulder
      Spine_dum3 Head
      RightShoulder RightArm
      RightArm RightForeArm
      RightForeArm RightHand
      RightHand RightHand_dum1 RightHand_dum2
      RightHand_dum2 RightHandThumb1
      LeftShoulder LeftArm
      LeftArm LeftForeArm
      LeftForeArm LeftHand
      LeftHand LeftHand_dum1 LeftHand_dum2
      LeftHand_dum2 LeftHandThumb1
   end

# File created by Blade
# Date/Time:  Mon Sep 22 17:23:16 2014
# Frame Rate: 120.000 fps
#------------------------------------------------------
:FULLY-SPECIFIED
:DEGREES
947
root 4.179413 37.413980 -1.410299 -17.151181 14.429511 -1.952135
RightUpLeg -66.996732 -11.463720 -8.881104
RightLeg 93.602438 -0.000000 -0.000000
RightFoot 4.473101 -26.565833 14.152356
RightToeBase 3.977771 -0.000000 -0.000000
LeftUpLeg 17.835328 -5.163062 -8.802562
LeftLeg 6.600904 -0.000000 -0.000000
LeftFoot -16.474585 16.224868 -18.826541
LeftToeBase -1.301614 -0.000000 0.000000
Spine 26.029308 -18.987649 -13.828474
RightShoulder -0.425776 -29.424666 -4.978886
RightArm 18.900972 -28.149218 61.751468
RightForeArm -174.170353 0.000000 53.394929
RightHand 99.436797 0.000000 -168.878145
RightHandThumb1 -24.326973 -0.000000 -32.862282
LeftShoulder -12.473539 25.579184 11.448188
LeftArm 79.465004 -18.901719 -60.761187
LeftForeArm 48.860068 0.000000 56.888366
LeftHand -26.733907 -0.000000 -10.169193
LeftHandThumb1 -26.253704 0.000000 33.147579
Head 4.183685 8.267838 12.162435
948
root 4.157725 37.418062 -1.436354 -16.947852 14.523198 -2.064703
RightUpLeg -67.184671 -11.679759 -8.559222
RightLeg 93.511212 -0.000000 -0.000000
RightFoot 4.458527 -26.532772 14.093583
RightToeBase 3.900148 -0.000000 -0.000000
LeftUpLeg 17.424261 -3.649860 -8.019615
LeftLeg 6.848334 -0.000000 -0.000000
LeftFoot -16.681127 17.536366 -18.116609
LeftToeBase -3.358795 -0.000000 0.000000
Spine 25.925292 -19.232994 -14.116082
RightShoulder -0.530422 -29.341435 -4.765055
RightArm 18.760366 -28.068061 61.573822
RightForeArm -174.029534 -0.000000 53.411271
RightHand 99.561897 -0.000000 -168.714115
RightHandThumb1 -24.326973 -0.000000 -32.862282
LeftShoulder -12.292783 25.477535 11.855861
LeftArm 79.277141 -18.898442 -60.548215
LeftForeArm 49.172151 -0.000000 57.021398
LeftHand -26.816967 -0.000000 -10.366637
LeftHandThumb1 -26.253704 0.000000 33.147579
Head 4.084912 8.385350 12.536078
949
root 4.136741 37.420600 -1.460347 -16.803289 14.638129 -2.200091
RightUpLeg -67.308599 -11.874560 -8.261865
RightLeg 93.414917 -0.000000 -0.000000
RightFoot 4.364698 -26.439999 14.109973
RightToeBase 3.810873 -0.000000 -0.000000
LeftUpLeg 16.974314 -2.086389 -7.195494
LeftLeg 7.294425 -0.000000 -0.000000
LeftFoot -17.035983 18.242965 -18.250526
LeftToeBase -3.801442 -0.000000 0.000000
Spine 25.915497 -19.516302 -14.424472
RightShoulder -0.634817 -29.302884 -4.564728
RightArm 18.707280 -27.944680 61.355709
RightForeArm -173.740587 -0.000000 53.464264
RightHand 99.576678 -0.000000 -170.048064
RightHandThumb1 -24.326973 -0.000000 -32.862282
LeftShoulder -12.102659 25.407767 12.327362
LeftArm 79.060026 -18.924240 -60.405026
LeftForeArm 49.571027 -0.000000 57.247909
LeftHand -26.770749 -0.000000 -10.977729
LeftHandThumb1 -26.253704 0.000000 33.147579
Head 3.944124 8.520229 12.918821
950
root 4.114875 37.421279 -1.485925 -16.685758 14.805624 -2.383539
RightUpLeg -67.399189 -12.116031 -7.944176
RightLeg 93.314017 -0.000000 -0.000000
RightFoot 4.162104 -26.437552 14.262521
RightToeBase 3.807822 -0.000000 -0.000000
LeftUpLeg 16.437081 -0.672815 -6.397245
LeftLeg 7.955757 -0.000000 -0.000000
LeftFoot -16.923408 18.256722 -18.066727
LeftToeBase -4.567710 -0.000000 0.000000
Spine 25.970404 -19.927164 -14.729200
RightShoulder -0.682715 -29.289277 -4.434337
RightArm 18.701135 -27.719634 61.157246
RightForeArm -173.746956 -0.000000 53.542906
RightHand 99.639372 -0.000000 -170.019154
RightHandThumb1 -24.326973 -0.000000 -32.862282
LeftShoulder -11.982440 25.399511 12.774773
LeftArm 78.890326 -18.976741 -60.278645
LeftForeArm 49.809266 -0.000000 57.481800
LeftHand -26.931995 -0.000000 -11.318349
LeftHandThumb1 -26.253704 0.000000 33.147579
Head 3.761597 8.706922 13.252803
951
root 4.095167 37.417785 -1.512109 -16.576024 15.049268 -2.592521
RightUpLeg -67.481424 -12.444095 -7.636296
RightLeg 93.224668 -0.000000 -0.000000
RightFoot 3.926527 -26.451585 14.329676
RightToeBase 3.923257 -0.000000 -0.000000
LeftUpLeg 15.778148 0.512246 -5.689981
LeftLeg 8.812228 -0.000000 -0.000000
LeftFoot -16.787822 17.250840 -17.868953
LeftToeBase -2.677425 -0.000000 0.000000
Spine 26.040742 -20.410498 -14.995274
RightShoulder -0.778442 -29.259208 -4.319095
RightArm 18.695836 -27.529088 60.911620
RightForeArm -173.755451 -0.000000 53.676828
RightHand 99.595325 -0.000000 -170.632719
RightHandThumb1 -24.326973 -0.000000 -32.862282
LeftShoulder -11.834875 25.411996 13.210936
LeftArm 78.717978 -19.075875 -60.126530
LeftForeArm 49.985494 -0.000000 57.699527
LeftHand -27.038108 -0.000000 -11.679797
LeftHandThumb1 -26.253704 0.000000 33.147579
Head 3.571015 8.920670 13.519053
952
root 4.082592 37.409529 -1.536801 -16.489510 15.322167 -2.806563
RightUpLeg -67.542255 -12.800369 -7.379843
RightLeg 93.146840 -0.000000 -0.000000
RightFoot 3.800916 -26.289227 14.337906
RightToeBase 3.709411 -0.000000 -0.000000
LeftUpLeg 15.030440 1.423787 -5.153257
LeftLeg 9.842676 -0.000000 -0.000000
LeftFoot -16.028249 15.964046 -16.394901
LeftToeBase -2.522818 -0.000000 0.000000
Spine 26.144199 -20.955665 -15.271408
RightShoulder -0.829804 -29.194065 -4.272783
RightArm 18.648429 -27.252242 60.748050
RightForeArm -173.853740 -0.000000 53.820315
RightHand 99.655652 0.000000 -170.459332
RightHandThumb1 -24.326973 -0.000000 -32.862282
LeftShoulder -11.696290 25.407311 13.677877
LeftArm 78.490709 -19.147835 -60.031362
LeftForeArm 50.083004 -0.000000 57.932916
LeftHand -27.091997 -0.000000 -11.931151
LeftHandThumb1 -26.253704 0.000000 33.147579
Head 3.396053 9.011860 13.665404
953
root 4.068203 37.397923 -1.565342 -16.436155 15.649938 -3.108505
RightUpLeg -67.583078 -13.223805 -7.069478
RightLeg 93.050038 -0.000000 -0.000000
RightFoot 3.719166 -26.275033 14.345717
RightToeBase 3.676449 -0.000000 -0.000000
LeftUpLeg 14.205870 1.809511 -4.745942
LeftLeg 11.035789 -0.000000 -0.000000
LeftFoot -15.552266 15.139997 -14.974753
LeftToeBase -1.913842 -0.000000 0.000000
Spine 26.282937 -21.580167 -15.438303
RightShoulder -0.849714 -29.104031 -4.300177
RightArm 18.553267 -26.887246 60.648654
RightForeArm -174.025496 -0.000000 53.992481
RightHand 99.740126 -0.000000 -169.719251
RightHandThumb1 -24.326973 -0.000000 -32.862282
LeftShoulder -11.553057 25.369243 14.093886
LeftArm 78.269825 -19.220259 -59.917052
LeftForeArm 50.115381 -0.000000 58.106541
LeftHand -27.199585 -0.000000 -12.214345
LeftHandThumb1 -26.253704 0.000000 33.147579
Head 3.218925 9.146904 13.720886
954
root 4.060228 37.379854 -1.593120 -16.375910 15.958418 -3.432292
RightUpLeg -67.649187 -13.619074 -6.761264
RightLeg 92.948626 -0.000000 -0.000000
RightFoot 3.696690 -26.225440 14.336216
RightToeBase 3.774303 -0.000000 -0.000000
LeftUpLeg 13.342007 1.738996 -4.491064
LeftLeg 12.316954 -0.000000 -0.000000
LeftFoot -15.751137 14.975586 -14.556245
LeftToeBase -1.753392 -0.000000 0.000000
Spine 26.365915 -22.214710 -15.506124
RightShoulder -0.820137 -29.048690 -4.418321
RightArm 18.415249 -26.418242 60.594718
RightForeArm -174.232084 -0.000000 54.239856
RightHand 99.735642 -0.000000 -169.726937
RightHandThumb1 -24.326973 -0.000000 -32.862282
LeftShoulder -11.393904 25.301588 14.496074
LeftArm 77.975335 -19.269284 -59.800671
LeftForeArm 50.064463 -0.000000 58.288962
LeftHand -27.248767 0.000000 -12.419465
LeftHandThumb1 -26.253704 0.000000 33.147579
Head 3.089964 9.310087 13.656104
955
root 4.052802 37.359534 -1.611387 -16.379112 16.158768 -3.786601
RightUpLeg -67.695468 -13.915580 -6.395253
RightLeg 92.848050 -0.000000 -0.000000
RightFoot 3.689088 -26.256076 14.467172
RightToeBase 3.735286 -0.000000 -0.000000
LeftUpLeg 12.564199 1.511310 -4.277560
LeftLeg 13.542009 -0.000000 -0.000000
LeftFoot -15.786333 15.367894 -13.915151
LeftToeBase -1.614852 -0.000000 0.000000
Spine 26.449834 -22.730468 -15.447822
RightShoulder -0.774302 -28.892375 -4.610055
RightArm 18.140879 -25.970403 60.617506
RightForeArm -174.353964 -0.000000 54.520237
RightHand 99.702156 -0.000000 -169.888962
RightHandThumb1 -24.326973 -0.000000 -32.862282
LeftShoulder -11.275172 25.249193 14.800854
LeftArm 77.763311 -19.293350 -59.647663
LeftForeArm 49.981990 0.000000 58.421019
LeftHand -27.343648 -0.000000 -12.635269
LeftHandThumb1 -26.253704 0.000000 33.147579
Head 2.958453 9.410060 13.435231
956
root 4.049268 37.336818 -1.627796 -16.386679 16.214770 -4.121726
RightUpLeg -67.747691 -14.038532 -6.051597
RightLeg 92.742648 -0.000000 -0.000000
RightFoot 3.676898 -26.217567 14.579972
RightToeBase 3.870895 -0.000000 -0.000000
LeftUpLeg 11.829879 1.280068 -4.081886
LeftLeg 14.728703 -0.000000 -0.000000
LeftFoot -16.079836 15.754995 -13.689632
LeftToeBase -0.843951 -0.000000 0.000000
Spine 26.479003 -23.114282 -15.294248
RightShoulder -0.697163 -28.763160 -4.860837
RightArm 17.876827 -25.490612 60.609171
RightForeArm -174.413538 -0.000000 54.857806
RightHand 99.653879 -0.000000 -170.056174
RightHandThumb1 -24.326973 -0.000000 -32.862282
LeftShoulder -11.228258 25.197710 15.009916
LeftArm 77.612253 -19.280079 -59.512342
LeftForeArm 50.010646 0.000000 58.522102
LeftHand -27.527364 -0.000000 -12.882062
LeftHandThumb1 -26.253704 0.000000 33.147579
Head 2.817373 9.493108 13.062502
